<?xml version="1.0" encoding="UTF-8"?>
<svg version="1.1" xmlns="http://www.w3.org/2000/svg" width="1672" height="294">
<path d="M0 0 C2.16471869 -0.02113518 4.32981057 -0.01409352 6.49445057 0.01396656 C7.68532758 0.00969444 8.87620459 0.00542231 10.10316879 0.00102073 C13.41479722 -0.00580637 16.72495729 0.00987312 20.03640854 0.03491104 C23.60489643 0.0564604 27.17333721 0.04919955 30.74187183 0.04539967 C36.92649287 0.04277516 43.11085059 0.05849099 49.29540539 0.08658886 C58.23723768 0.12718728 67.17894238 0.1402423 76.12085686 0.14652882 C90.62768789 0.15747778 105.13437853 0.19076821 119.64113331 0.23804188 C133.73487615 0.28392195 147.82858089 0.31932143 161.92238331 0.34058094 C162.79081085 0.34189456 163.65923839 0.34320818 164.55398192 0.3445616 C168.91053451 0.35108669 173.26708738 0.35740525 177.62364042 0.36362112 C213.77792665 0.41547284 249.93205324 0.50355442 286.08620167 0.61523914 C290.33521498 10.72155661 287.67889648 21.58143473 285.71510792 32.02539539 C285.47002187 33.36853626 285.22581162 34.7118372 284.98242664 36.05528736 C284.47508658 38.84397474 283.96110921 41.63131611 283.44142628 44.41772938 C282.77573718 47.98701277 282.12127966 51.55823438 281.47099876 55.13035393 C280.84741278 58.55432205 280.21927081 61.97744821 279.59010792 65.40039539 C279.35465763 66.68156742 279.11920734 67.96273945 278.8766222 69.28273487 C278.65646946 70.46504185 278.43631672 71.64734882 278.20949268 72.86548328 C278.01629948 73.90628544 277.82310627 74.94708759 277.62405872 76.01942921 C277.08620167 78.61523914 277.08620167 78.61523914 276.08620167 81.61523914 C277.13807667 81.51211414 278.18995167 81.40898914 279.27370167 81.30273914 C289.34239541 81.33844373 299.02218917 86.74476123 306.08620167 93.61523914 C313.97361431 102.03579698 317.13321018 110.84401115 318.69167042 122.14648914 C318.95866843 124.61055806 318.95866843 124.61055806 320.08620167 126.61523914 C321.83767451 127.46867328 323.6134552 128.27241741 325.39870167 129.05273914 C339.90628194 136.12496838 349.96561576 148.90055622 356.08620167 163.61523914 C361.5836244 179.57217778 360.67289398 197.58793005 353.57838917 212.86133289 C349.68284373 219.97296816 344.7940338 225.88683825 339.08620167 231.61523914 C338.54608448 232.17855946 338.00596729 232.74187977 337.44948292 233.32227039 C326.19898868 244.06266666 310.13752231 248.14965766 295.01442432 248.03516102 C278.40882806 247.49151505 264.83359554 241.61141315 252.73073292 230.11914539 C251.33462618 228.50276397 251.33462618 228.50276397 250.08620167 228.61523914 C249.96758274 229.27399036 249.84896381 229.93274158 249.72675037 230.61145496 C248.4863374 237.49164782 247.23543642 244.36987561 245.97853565 251.24707508 C245.51134465 253.81104263 245.04679485 256.37549295 244.58498096 258.94043446 C243.9192218 262.63543365 243.24386115 266.32857013 242.56667042 270.02148914 C242.26178951 271.73132984 242.26178951 271.73132984 241.9507494 273.47571278 C238.90125752 289.9524134 238.90125752 289.9524134 234.08620167 294.61523914 C231.44879129 295.00798599 229.22635071 295.13878544 226.58823109 295.09625721 C225.81795997 295.09967491 225.04768885 295.10309261 224.25407618 295.10661387 C221.66494692 295.11321897 219.07684723 295.09117422 216.487813 295.06934071 C214.63517754 295.06821279 212.7825403 295.06884499 210.92990589 295.07111073 C205.89289832 295.07226099 200.85626977 295.04870112 195.81935048 295.0208149 C190.55827858 294.99585328 185.29719853 294.99346338 180.03607655 294.98871326 C170.07003922 294.97626806 160.10417686 294.94342554 150.13821667 294.90331531 C138.79376852 294.85864564 127.44931213 294.83662265 116.10479796 294.81653357 C92.76516876 294.77469428 69.425695 294.70431221 46.08620167 294.61523914 C45.26933081 293.17509055 44.4560949 291.73287973 43.64441395 290.28979969 C43.1911571 289.48688999 42.73790026 288.68398029 42.27090836 287.85674 C40.96884204 285.39319117 40.2181034 283.16698382 39.71510792 280.42773914 C39.5362505 279.49711658 39.35739307 278.56649403 39.17311573 277.60767078 C39.00005909 276.62016834 38.82700245 275.6326659 38.64870167 274.61523914 C38.45115284 273.56521717 38.25360401 272.5151952 38.05006886 271.43335438 C37.37745162 267.83038193 36.73065426 264.22335272 36.08620167 260.61523914 C35.41298625 256.88936025 34.73651639 253.16407053 34.05984974 249.43881702 C33.38371933 245.71306538 32.71258551 241.98657926 32.05324268 238.25781727 C31.92959843 237.56473972 31.80595417 236.87166218 31.67856312 236.15758228 C31.34078354 234.26369291 31.00588137 232.369291 30.67116261 230.47485828 C30.2290708 227.68523623 30.2290708 227.68523623 29.08620167 225.61523914 C28.43135792 225.94137196 27.77651417 226.26750477 27.10182667 226.60352039 C10.77143019 234.42273566 -5.98514711 236.27177065 -23.39036083 230.92773914 C-39.86148414 224.79215441 -52.15095369 214.46438029 -59.91379833 198.61523914 C-66.85858292 182.46861497 -68.20916666 164.8975727 -61.66379833 148.36523914 C-55.45083655 134.68214736 -47.61954507 124.7383142 -34.91379833 116.61523914 C-31.53879833 115.35352039 -31.53879833 115.35352039 -28.91379833 114.61523914 C-29.12004833 113.70773914 -29.32629833 112.80023914 -29.53879833 111.86523914 C-30.99675774 101.42709501 -27.14169862 90.99160659 -21.22629833 82.55273914 C-15.29477355 75.08617152 -8.83420093 69.96339241 0.08620167 66.61523914 C-0.28535131 59.77788829 -1.29056421 53.1177244 -2.54270458 46.39648914 C-2.69701946 45.56697742 -2.85133434 44.73746571 -3.01032543 43.88281727 C-3.65869222 40.42156088 -4.31370812 36.9616577 -4.97800732 33.50342274 C-9.40143634 10.37452429 -9.40143634 10.37452429 -7.10095024 3.01475716 C-4.47304052 0.13168502 -3.77400538 0.21704093 0 0 Z " fill="#1994EC" transform="translate(145.91379833221436,-0.615239143371582)"/>
<path d="M0 0 C1.27922927 1.07340623 2.55013137 2.15681479 3.8125 3.25 C4.6271875 3.87648438 5.441875 4.50296875 6.28125 5.1484375 C20.45974602 16.92009006 29.57344236 36.09368114 31.8125 54.25 C33.43480157 78.48488614 28.85007352 99.7795532 13.0625 118.625 C-0.66594595 134.24605509 -19.51260666 143.90861251 -40.1875 146.25 C-63.01129413 147.59833025 -84.68076644 142.38071229 -102.25 127.03540039 C-117.48875574 113.17016097 -128.8044734 93.27820198 -130.32592773 72.34545898 C-131.4275861 48.32176472 -124.27452195 27.79706891 -108.375 9.5 C-80.3329964 -20.15899319 -32.61534621 -25.06799337 0 0 Z " fill="#FBFDFE" transform="translate(335.1875,45.75)"/>
<path d="M0 0 C9.59598732 -0.12807786 17.36017007 2.02822279 24.5 8.875 C31.03856277 16.09324705 33.14563266 22.40701769 33.125 32.125 C33.12886719 33.95417969 33.12886719 33.95417969 33.1328125 35.8203125 C33 39 33 39 32 42 C33.2375 42.20625 34.475 42.4125 35.75 42.625 C48.90449889 45.58735172 59.00754125 53.17406069 66.39453125 64.24609375 C73.24962382 76.00482918 76.57263844 89.46237514 73.09375 102.9296875 C70.88933472 110.35044545 67.82609315 116.90258309 63 123 C62.40445313 123.81082031 61.80890625 124.62164062 61.1953125 125.45703125 C54.29415594 133.45107559 43.15246218 140.34353438 32.53808594 141.19824219 C29.66903163 141.34113751 26.80993239 141.40861094 23.9375 141.4375 C23.01525635 141.44789307 22.0930127 141.45828613 21.14282227 141.46899414 C6.1467557 141.27528103 -4.77365977 134.75255972 -15.125 124.2109375 C-17.814347 121.03974916 -19.92145375 118.53488616 -20.13952732 114.27347183 C-19.97324534 112.83875849 -19.97324534 112.83875849 -19.80360413 111.37506104 C-19.68431612 110.31914009 -19.56502811 109.26321915 -19.44212532 108.1753006 C-18.78094665 103.42678033 -18.01647215 98.71290623 -17.14233398 93.99902344 C-16.95687012 92.97314621 -16.77140625 91.94726898 -16.58032227 90.89030457 C-15.97429326 87.5456578 -15.36027465 84.20253352 -14.74609375 80.859375 C-14.32104096 78.52249031 -13.89649345 76.18551366 -13.47242737 73.84844971 C-12.36120162 67.73204592 -11.24316569 61.61690658 -10.12365723 55.50201416 C-8.97997688 49.24819261 -7.84281029 42.99318714 -6.70507812 36.73828125 C-4.47638855 24.49102688 -2.24049521 12.24509976 0 0 Z " fill="#CEEDFE" transform="translate(419,93)"/>
<path d="M0 0 C1.27922927 1.07340623 2.55013137 2.15681479 3.8125 3.25 C4.6271875 3.87648438 5.441875 4.50296875 6.28125 5.1484375 C20.45974602 16.92009006 29.57344236 36.09368114 31.8125 54.25 C33.43480157 78.48488614 28.85007352 99.7795532 13.0625 118.625 C-0.66594595 134.24605509 -19.51260666 143.90861251 -40.1875 146.25 C-63.01129413 147.59833025 -84.68076644 142.38071229 -102.25 127.03540039 C-117.48875574 113.17016097 -128.8044734 93.27820198 -130.32592773 72.34545898 C-131.4275861 48.32176472 -124.27452195 27.79706891 -108.375 9.5 C-80.3329964 -20.15899319 -32.61534621 -25.06799337 0 0 Z M-74.1875 7.25 C-75.08726562 7.65089844 -75.98703125 8.05179688 -76.9140625 8.46484375 C-93.59457838 16.57016485 -104.11529685 31.24360041 -110.30078125 48.32421875 C-113.79062398 61.08682473 -112.722705 78.25994779 -107.1875 90.25 C-106.58615234 91.63251953 -106.58615234 91.63251953 -105.97265625 93.04296875 C-97.8784124 109.6772264 -83.13980869 120.19738504 -66.11328125 126.36328125 C-53.36269971 129.84983598 -36.16350185 128.79732553 -24.1875 123.25 C-23.24261719 122.82589844 -22.29773438 122.40179688 -21.32421875 121.96484375 C-14.27899371 118.46659231 -8.73990289 113.7729211 -3.1875 108.25 C-2.63449219 107.73179687 -2.08148438 107.21359375 -1.51171875 106.6796875 C8.72441949 96.1400519 13.85503342 79.8565199 14.125 65.5625 C13.99164027 59.86282091 13.53568428 54.68390496 11.8125 49.25 C11.4103125 47.94482422 11.4103125 47.94482422 11 46.61328125 C5.86660594 31.2772665 -4.44574909 17.57778647 -18.84765625 9.81640625 C-29.06004887 4.97593324 -38.24389841 2.7042127 -49.5625 2.8125 C-50.66867676 2.82007324 -51.77485352 2.82764648 -52.91455078 2.83544922 C-60.63409502 2.99173377 -67.21309942 3.74079845 -74.1875 7.25 Z " fill="#FBFCFD" transform="translate(335.1875,45.75)"/>
<path d="M0 0 C3.31896775 16.3131631 6.45180552 32.64947587 9.390625 49.03515625 C9.78449824 51.22231186 10.17852423 53.40943997 10.57269287 55.59654236 C11.38757929 60.12113156 12.20078613 64.64601821 13.01269531 69.17114258 C14.05069971 74.95570469 15.09285309 80.73951048 16.13620377 86.52311039 C16.94589802 91.01387101 17.75353471 95.50499976 18.56053925 99.99624443 C18.94426441 102.13050715 19.32859817 104.26466054 19.71356964 106.39869881 C20.24894942 109.3683765 20.7815737 112.33853575 21.31347656 115.30883789 C21.47033936 116.17587341 21.62720215 117.04290894 21.78881836 117.93621826 C22.68248148 122.94627616 23.41230796 127.94464396 24 133 C22.129287 134.13211434 20.25321809 135.25538095 18.375 136.375 C17.33085937 137.00148437 16.28671875 137.62796875 15.2109375 138.2734375 C3.71224628 144.45643205 -10.6372793 144.61977625 -23.02734375 141.09375 C-38.31540548 135.46870758 -47.74941736 125.12769972 -54.50390625 110.734375 C-59.28493273 99.56309159 -58.24289846 84.23366422 -53.84765625 73.07421875 C-47.76314716 59.80965184 -38.20673089 51.08075711 -25 45.0625 C-22 44 -22 44 -19 44 C-19.3196875 43.16726562 -19.639375 42.33453125 -19.96875 41.4765625 C-22.50973209 32.91037289 -22.26662998 23.55417819 -18.5 15.4375 C-15.10083233 9.52310898 -7.57951501 0 0 0 Z " fill="#CDEDFE" transform="translate(150,78)"/>
<path d="M0 0 C4.95 0 9.9 0 15 0 C19.10371634 10.25929085 16.6180456 20.83137325 14.62890625 31.41015625 C14.38382021 32.75329712 14.13960995 34.09659806 13.89622498 35.44004822 C13.38888491 38.2287356 12.87490754 41.01607696 12.35522461 43.80249023 C11.68953551 47.37177363 11.03507799 50.94299524 10.3847971 54.51511478 C9.76121112 57.93908291 9.13306914 61.36220907 8.50390625 64.78515625 C8.26845596 66.06632828 8.03300568 67.34750031 7.79042053 68.66749573 C7.57026779 69.8498027 7.35011505 71.03210968 7.12329102 72.25024414 C6.93009781 73.2910463 6.7369046 74.33184845 6.53785706 75.40419006 C6 78 6 78 5 81 C6.051875 80.896875 7.10375 80.79375 8.1875 80.6875 C18.25619374 80.72320459 27.9359875 86.12952209 35 93 C42.88741265 101.42055784 46.04700851 110.22877201 47.60546875 121.53125 C47.87246677 123.99531892 47.87246677 123.99531892 49 126 C50.75147284 126.85343414 52.52725354 127.65717826 54.3125 128.4375 C68.82008028 135.50972924 78.8794141 148.28531707 85 163 C90.49742273 178.95693864 89.58669231 196.97269091 82.4921875 212.24609375 C78.59664207 219.35772902 73.70783213 225.27159911 68 231 C67.18982422 231.84498047 67.18982422 231.84498047 66.36328125 232.70703125 C55.11278701 243.44742752 39.05132064 247.53441852 23.92822266 247.41992188 C7.32262639 246.87627591 -6.25260612 240.99617401 -18.35546875 229.50390625 C-19.75157549 227.88752483 -19.75157549 227.88752483 -21 228 C-21.17792839 228.98812683 -21.17792839 228.98812683 -21.35945129 229.99621582 C-22.59986427 236.87640868 -23.85076525 243.75463647 -25.10766602 250.63183594 C-25.57485702 253.19580348 -26.03940682 255.7602538 -26.5012207 258.32519531 C-27.16697987 262.02019451 -27.84234052 265.71333098 -28.51953125 269.40625 C-28.72278519 270.5461438 -28.92603912 271.6860376 -29.13545227 272.86047363 C-32.34404681 290.1968214 -32.34404681 290.1968214 -37 294 C-39.91314524 294.47580595 -42.74622167 294.3754688 -45.6875 294.25 C-46.48478516 294.23195313 -47.28207031 294.21390625 -48.10351562 294.1953125 C-50.06952449 294.14822247 -52.03491494 294.07647899 -54 294 C-52 292 -52 292 -49.6875 290.75 C-44.80869848 287.57310599 -42.03942399 284.19030811 -40.69921875 278.5625 C-40.34190088 276.71209775 -40.00658429 274.85737712 -39.6875 273 C-39.48858154 271.93225342 -39.28966309 270.86450684 -39.0847168 269.7644043 C-38.36499641 265.84711887 -37.68006053 261.92430329 -37 258 C-36.72056396 256.39921876 -36.4409332 254.7984715 -36.16113281 253.19775391 C-34.8633717 245.76287483 -33.57224779 238.32688044 -32.29370117 230.88867188 C-29.65479419 215.56836575 -26.85524086 200.28132744 -24 185 C-20.71791012 167.42580583 -17.54683736 149.83842853 -14.52252197 132.21810913 C-11.57495507 115.06615388 -8.42373269 97.95533441 -5.2277832 80.8480835 C-2.27852028 65.05444861 0.57838284 49.25125953 3.19970703 33.3996582 C4.23765718 27.17785925 5.41208006 21.10245464 7 15 C7.47341707 11.99504741 7.35825526 10.12193867 7 7 C4.7495803 4.08209475 4.7495803 4.08209475 2 2 C1.34 1.34 0.68 0.68 0 0 Z M2 93 C-0.61406972 107.36782174 -3.22211605 121.73672593 -5.82302856 136.1069355 C-7.03086168 142.77949348 -8.24065093 149.45168561 -9.45507812 156.12304688 C-10.6269528 162.5606806 -11.79333303 168.99929563 -12.95635986 175.43853378 C-13.40108159 177.89564921 -13.84764707 180.35243167 -14.29608154 182.80887222 C-14.92361916 186.2481843 -15.54460434 189.68861944 -16.1640625 193.12939453 C-16.35107727 194.14575485 -16.53809204 195.16211517 -16.73077393 196.20927429 C-18.53401268 204.2916777 -18.53401268 204.2916777 -16.93359375 212.08984375 C-15.316236 214.08725946 -13.69100174 216.06419845 -12 218 C-11.49339844 218.60070312 -10.98679687 219.20140625 -10.46484375 219.8203125 C-2.40005482 228.65789447 8.25212453 233.75181903 20.13671875 234.37109375 C37.70636561 234.76408039 50.04622342 231.00722187 63 219 C68.27791103 213.03808649 71.45248842 206.48891594 74 199 C74.4125 197.9275 74.825 196.855 75.25 195.75 C78.1630128 181.18493598 75.13337596 167.29248867 67 155 C59.50913204 144.73291124 49.223549 138.32430978 37 135 C36.01 135 35.02 135 34 135 C34.33 134.01 34.66 133.02 35 132 C35.63220167 120.29691794 34.88176368 111.93751956 27 103 C22.07005298 97.75665782 15.41263575 93.17412141 7.9841156 92.93515015 C7.27320267 92.94285431 6.56228973 92.95055847 5.82983398 92.95849609 C4.56598877 92.97219238 3.30214355 92.98588867 2 93 Z " fill="#0B59A4" transform="translate(417,0)"/>
<path d="M0 0 C1.26457031 0.05800781 2.52914062 0.11601563 3.83203125 0.17578125 C5.10433594 0.22089844 6.37664062 0.26601562 7.6875 0.3125 C8.66332031 0.37050781 9.63914062 0.42851563 10.64453125 0.48828125 C9.84789062 1.10316406 9.05125 1.71804687 8.23046875 2.3515625 C5.31235768 4.76275095 4.46005548 5.81842219 3.64453125 9.48828125 C3.95951049 15.43730131 5.08356091 21.31710208 6.2109375 27.15625 C6.5304733 28.84610301 6.84997018 30.53596338 7.16943359 32.22583008 C7.33803894 33.1109024 7.50664429 33.99597473 7.68035889 34.90786743 C10.77668427 51.18053033 13.7175625 67.47504812 16.51953125 83.80078125 C19.46591822 100.95213712 22.57639185 118.06869855 25.76953125 135.17578125 C28.61609848 150.42642374 31.41447524 165.67813819 33.97805786 180.97894287 C36.57922784 196.47088968 39.48023922 211.90654046 42.37088013 227.34667969 C46.62615685 250.08261983 46.62615685 250.08261983 48.29296875 260.40625 C48.40887863 261.12267166 48.52478851 261.83909332 48.64421082 262.57722473 C49.15039243 265.72922567 49.64084427 268.88278128 50.11157227 272.0402832 C51.20857933 279.08770623 52.29886544 285.07200415 58.14453125 289.73828125 C58.73234375 290.2178125 59.32015625 290.69734375 59.92578125 291.19140625 C61.45746934 292.34713453 63.04799687 293.423925 64.64453125 294.48828125 C59.03453125 294.48828125 53.42453125 294.48828125 47.64453125 294.48828125 C43.55243035 287.8428728 41.54780415 282.13905101 40.20703125 274.48828125 C40.00948242 273.43825928 39.81193359 272.3882373 39.60839844 271.30639648 C38.9357812 267.70342403 38.28898385 264.09639482 37.64453125 260.48828125 C36.97131583 256.76240236 36.29484597 253.03711264 35.61817932 249.31185913 C34.94204891 245.58610749 34.27091509 241.85962137 33.61157227 238.13085938 C33.48792801 237.43778183 33.36428375 236.74470428 33.2368927 236.03062439 C32.89911313 234.13673502 32.56421095 232.24233311 32.22949219 230.34790039 C31.78740038 227.55827834 31.78740038 227.55827834 30.64453125 225.48828125 C29.9896875 225.81441406 29.33484375 226.14054688 28.66015625 226.4765625 C12.32975977 234.29577776 -4.42681753 236.14481276 -21.83203125 230.80078125 C-38.30315456 224.66519651 -50.59262411 214.3374224 -58.35546875 198.48828125 C-65.30025334 182.34165708 -66.65083708 164.77061481 -60.10546875 148.23828125 C-53.89250697 134.55518947 -46.06121548 124.61135631 -33.35546875 116.48828125 C-29.98046875 115.2265625 -29.98046875 115.2265625 -27.35546875 114.48828125 C-27.56171875 113.58078125 -27.76796875 112.67328125 -27.98046875 111.73828125 C-29.43842815 101.30013711 -25.58336903 90.86464869 -19.66796875 82.42578125 C-13.73644397 74.95921363 -7.27587134 69.83643451 1.64453125 66.48828125 C1.27297827 59.6509304 0.26776537 52.99076651 -0.984375 46.26953125 C-1.13868988 45.44001953 -1.29300476 44.61050781 -1.45199585 43.75585938 C-2.10036263 40.29460299 -2.75537853 36.83469981 -3.41967773 33.37646484 C-7.87637502 10.07361577 -7.87637502 10.07361577 -5.3046875 2.3203125 C-3.35546875 0.48828125 -3.35546875 0.48828125 0 0 Z M-7.140625 86.12890625 C-14.49460065 94.17878241 -15.92919774 102.06647518 -15.69140625 112.71875 C-15.37243135 116.29794509 -14.65234344 119.15271955 -13.35546875 122.48828125 C-14.23847656 122.60300781 -15.12148437 122.71773437 -16.03125 122.8359375 C-27.09545313 125.0071736 -37.19456904 133.55694486 -43.53125 142.58984375 C-50.95410836 154.97664258 -53.65373894 169.18473965 -50.79296875 183.55078125 C-46.03827281 198.60185321 -37.37574601 209.52591208 -23.421875 217.08203125 C-11.70056984 222.45740686 2.30362683 223.52643652 14.64453125 219.48828125 C19.87486651 217.18796181 24.88820092 214.65916814 29.64453125 211.48828125 C28.88093507 204.74638233 27.73629266 198.10354761 26.52734375 191.4284668 C26.20766632 189.64903938 26.20766632 189.64903938 25.88153076 187.83366394 C25.30050902 184.60234099 24.71757725 181.3713703 24.13362885 178.14057517 C23.64562367 175.43907115 23.15900064 172.73731893 22.67238808 170.03556377 C21.52502477 163.66521187 20.37553733 157.29524588 19.22460938 150.92553711 C18.03760185 144.35598679 16.85376144 137.78587151 15.67153358 131.21545953 C14.65488031 125.56574619 13.63649865 119.9163464 12.61667442 114.26720458 C12.00818963 110.89658676 11.40031165 107.52586253 10.79400635 104.15485191 C10.11872053 100.4032181 9.44060402 96.65210693 8.76171875 92.90112305 C8.56116882 91.78368713 8.3606189 90.66625122 8.1539917 89.51495361 C7.96895081 88.49586411 7.78390991 87.4767746 7.59326172 86.42680359 C7.43324677 85.54028956 7.27323181 84.65377554 7.10836792 83.74039745 C6.65940263 81.33563427 6.65940263 81.33563427 5.64453125 78.48828125 C0.95178553 78.48828125 -3.82051817 83.07760456 -7.140625 86.12890625 Z " fill="#0B59A4" transform="translate(144.35546875,-0.48828125)"/>
<path d="M0 0 C17.75981294 13.61004459 29.00787069 30.34263655 35.22900391 51.72460938 C35.49583984 52.63082031 35.76267578 53.53703125 36.03759766 54.47070312 C41.31024482 77.19763055 36.11290166 102.28387394 24.24462891 122.02539062 C22.34694109 124.70872119 20.36069831 127.22412373 18.22900391 129.72460938 C17.53033203 130.57152344 16.83166016 131.4184375 16.11181641 132.29101562 C3.4421733 147.05723668 -12.82857349 157.18945264 -31.77099609 161.72460938 C-32.62177734 161.94761719 -33.47255859 162.170625 -34.34912109 162.40039062 C-56.62477677 167.42266269 -81.18415211 162.40373028 -100.34130859 150.37695312 C-121.25981748 136.15102184 -134.54662136 117.25596861 -140.77099609 92.72460938 C-145.39424316 68.02673689 -140.62377441 43.04149337 -126.64208984 22.24023438 C-110.22720928 0.17095862 -88.88718282 -11.79215186 -62.04638672 -15.97070312 C-40.93151481 -18.79810228 -17.28629681 -12.44880267 0 0 Z M-113.7956543 20.12817383 C-128.1778143 37.25862147 -135.42776592 57.841261 -134.03417969 80.22216797 C-132.32449209 96.478474 -126.02533748 112.0924497 -115.77099609 124.72460938 C-115.08005859 125.58054688 -114.38912109 126.43648437 -113.67724609 127.31835938 C-100.772434 142.46748661 -82.57496605 152.39232366 -62.77099609 154.72460938 C-38.53001701 156.18470556 -16.46512038 150.53108994 2.29150391 134.59960938 C18.49860577 119.37007873 27.99853978 99.59205392 28.69995117 77.26782227 C28.90810483 55.91195696 23.38166776 37.06756644 9.22900391 20.72460938 C8.60509766 19.91121094 7.98119141 19.0978125 7.33837891 18.25976562 C-4.6712968 3.82591464 -23.50159539 -4.59592733 -41.77099609 -7.27539062 C-69.09975124 -9.73503206 -95.47116093 -0.85824334 -113.7956543 20.12817383 Z " fill="#0D59A3" transform="translate(338.77099609375,37.275390625)"/>
<path d="M0 0 C1.40378906 -0.05994141 1.40378906 -0.05994141 2.8359375 -0.12109375 C6.65779988 0.64434928 8.39194343 2.40495918 10.625 5.4375 C12.87945172 9.00320686 14.91470073 12.6740442 16.9375 16.375 C18.0829474 18.44031826 19.22878018 20.50542282 20.375 22.5703125 C20.92800781 23.57223633 21.48101563 24.57416016 22.05078125 25.60644531 C24.73957311 30.44193391 27.53825599 35.21294168 30.33203125 39.98828125 C31.625 42.4375 31.625 42.4375 31.625 44.4375 C32.285 44.4375 32.945 44.4375 33.625 44.4375 C33.8928833 43.73189941 34.1607666 43.02629883 34.43676758 42.29931641 C36.66111763 36.94204678 39.56152358 31.91368624 42.3125 26.8125 C42.91255859 25.68714844 43.51261719 24.56179687 44.13085938 23.40234375 C54.73504169 3.69747221 54.73504169 3.69747221 59.625 0.4375 C61.9296875 0.06640625 61.9296875 0.06640625 64.5 0 C65.34304688 -0.03996094 66.18609375 -0.07992187 67.0546875 -0.12109375 C70.81883995 0.69695154 72.20855088 2.48860032 74.625 5.4375 C75.25318909 8.70056152 75.25318909 8.70056152 75.25610352 12.44335938 C75.26325882 13.12856155 75.27041412 13.81376373 75.27778625 14.51972961 C75.29463145 16.77425765 75.27529881 19.02678514 75.25390625 21.28125 C75.25473535 22.85396488 75.25719629 24.42667968 75.26121521 25.99938965 C75.26407031 29.29136315 75.24940126 32.5826552 75.22192383 35.87451172 C75.18784062 40.08811194 75.19386147 44.30049399 75.2125864 48.51415253 C75.22316966 51.76049907 75.21420673 55.00656357 75.19920158 58.25288391 C75.19402898 59.80616925 75.19449039 61.35948415 75.20074654 62.9127655 C75.20621518 65.08636506 75.18577512 67.25823802 75.15844727 69.43164062 C75.15224869 70.66676392 75.14605011 71.90188721 75.1396637 73.17443848 C74.53028117 77.03803461 73.38720571 78.71290315 70.625 81.4375 C67.96875 82.1015625 67.96875 82.1015625 65.125 82.0625 C64.1865625 82.07539063 63.248125 82.08828125 62.28125 82.1015625 C58.54125424 81.16656356 57.66787737 79.67578566 55.625 76.4375 C55.21496924 73.59790864 55.02033777 71.13057747 55.015625 68.29296875 C54.99908875 67.52318192 54.98255249 66.75339508 54.96551514 65.96028137 C54.91714714 63.51510553 54.89569035 61.07055104 54.875 58.625 C54.84683075 56.96155747 54.81690198 55.29814374 54.78515625 53.63476562 C54.71139189 49.56906161 54.66174945 45.50370024 54.625 41.4375 C54.22708252 42.17387695 53.82916504 42.91025391 53.41918945 43.66894531 C51.9274762 46.41707762 50.42613286 49.15965748 48.91821289 51.89892578 C47.95168972 53.66162152 46.99626336 55.4303872 46.04101562 57.19921875 C45.42548828 58.31425781 44.80996094 59.42929688 44.17578125 60.578125 C43.61544189 61.60454102 43.05510254 62.63095703 42.4777832 63.68847656 C40.12095803 67.18536039 37.60696458 70.00663814 33.37890625 70.92578125 C30.01722549 70.65612771 27.56408326 70.33197681 25.0625 67.94921875 C23.40489095 65.52402369 22.02850869 63.01982573 20.625 60.4375 C19.76702479 58.97473939 18.9032542 57.51536965 18.03515625 56.05859375 C15.5385303 51.86668462 13.07588059 47.65630828 10.625 43.4375 C10.61041748 44.34516113 10.59583496 45.25282227 10.58081055 46.18798828 C10.51951851 49.5765931 10.44532424 52.96441689 10.36254883 56.35253906 C10.32942865 57.81499708 10.30135695 59.27757895 10.27856445 60.74023438 C10.24477825 62.85079403 10.1924562 64.96023186 10.13671875 67.0703125 C10.11053467 68.33762207 10.08435059 69.60493164 10.05737305 70.91064453 C9.5916309 74.7096909 8.61549892 77.18619924 6.625 80.4375 C4.18545342 81.65727329 2.47194151 81.63903813 -0.25 81.6875 C-1.11367188 81.71328125 -1.97734375 81.7390625 -2.8671875 81.765625 C-5.88533741 81.37072688 -7.1936724 80.53079196 -9.375 78.4375 C-10.51006803 75.03229592 -10.50892311 72.41753769 -10.52026367 68.82641602 C-10.52530159 67.8259021 -10.52530159 67.8259021 -10.53044128 66.80517578 C-10.53993906 64.60056699 -10.54189375 62.39603423 -10.54296875 60.19140625 C-10.54618195 58.6582791 -10.54954607 57.12515226 -10.55305481 55.59202576 C-10.559043 52.37831918 -10.56089501 49.16463949 -10.56030273 45.95092773 C-10.56020108 41.83389328 -10.57385756 37.71703117 -10.59107494 33.60003757 C-10.60219529 30.43360096 -10.60422194 27.26720602 -10.60369301 24.10075188 C-10.60487291 22.58290958 -10.60929525 21.06506619 -10.61702538 19.54724312 C-10.62682686 17.42403216 -10.62394688 15.30119555 -10.61791992 13.17797852 C-10.61934494 11.97013199 -10.62076996 10.76228546 -10.62223816 9.51783752 C-10.38180626 6.52229908 -10.06287692 4.89047866 -8.375 2.4375 C-5.10183609 0.25539073 -3.83279281 0.08925682 0 0 Z " fill="#FFFFFF" transform="translate(517.375,116.5625)"/>
<path d="M0 0 C2.45703125 0.09375 2.45703125 0.09375 5 1 C12.78559963 11.13938556 12.8317156 24.60966253 11.7578125 36.734375 C9.84783583 48.97381736 2.0082023 59.58032355 -7.63671875 67.0390625 C-10.3588657 68.86418243 -13.10431319 70.4667501 -16 72 C-17.19109375 72.65162109 -17.19109375 72.65162109 -18.40625 73.31640625 C-29.13315129 78.18764149 -44.13845361 77.87683156 -55.125 74 C-68.88309228 67.64600395 -78.0305026 58.15359494 -84.28515625 44.4453125 C-85.05721679 41.80427479 -84.94165155 40.54660481 -84 38 C-83.29875 38.495 -82.5975 38.99 -81.875 39.5 C-78.48475614 41.26882288 -76.77553457 41.53936208 -73 41 C-69.21712117 39.06995978 -66.91016696 37.06285608 -64.625 33.5625 C-61.83461954 29.45222529 -58.6598921 26.8009635 -54 25 C-49.92754416 24.46721254 -46.00016008 24.49015527 -42.0078125 25.5078125 C-36.84338637 26.77380023 -31.58280006 26.58622224 -26.625 24.75 C-21.66473824 21.44315883 -19.48746534 18.83544094 -18 13 C-17.835 11.7625 -17.67 10.525 -17.5 9.25 C-17 6 -17 6 -15 4 C-12.5 3.75 -12.5 3.75 -10 4 C-9.01 4.99 -9.01 4.99 -8 6 C-8.0234375 8.1640625 -8.0234375 8.1640625 -8.375 10.625 C-8.48585938 11.44226563 -8.59671875 12.25953125 -8.7109375 13.1015625 C-8.80632812 13.72804688 -8.90171875 14.35453125 -9 15 C-5.91348321 12.05377942 -4.1758407 9.6264325 -3 5.4375 C-2 2 -2 2 0 0 Z " fill="#3AAAE1" transform="translate(323,85)"/>
<path d="M0 0 C1.25652626 -0.00642769 1.25652626 -0.00642769 2.53843689 -0.01298523 C4.31459654 -0.01873038 6.09077971 -0.01922743 7.86694336 -0.01489258 C10.55559814 -0.01175867 13.24312402 -0.03509726 15.93164062 -0.06054688 C29.19202162 -0.10999477 41.40049316 1.01115506 51.7265625 10.2734375 C60.6982557 19.67630265 62.88289564 30.15832513 62.73828125 42.85546875 C62.03266421 54.38054711 58.11964937 63.15859791 49.77734375 71.11328125 C41.54461891 77.92384633 32.02485588 79.44493787 21.68359375 79.5390625 C20.8368811 79.54713425 19.99016846 79.55520599 19.11779785 79.56352234 C17.33262145 79.57731157 15.54741925 79.58805665 13.76220703 79.59594727 C11.93888613 79.60750375 10.11560002 79.62801305 8.29248047 79.6574707 C5.65178549 79.70010866 3.01208999 79.71630648 0.37109375 79.7265625 C-0.44049194 79.74407059 -1.25207764 79.76157867 -2.08825684 79.77961731 C-6.04006212 79.76449056 -8.01779974 79.58053583 -11.46289062 77.46166992 C-14.78552424 73.88919299 -14.60554627 70.75909958 -14.63378906 66.07275391 C-14.64339661 64.78777008 -14.65300415 63.50278625 -14.66290283 62.17886353 C-14.66775073 60.77419207 -14.67202958 59.36951856 -14.67578125 57.96484375 C-14.68153503 56.52379352 -14.68729274 55.08274331 -14.6930542 53.64169312 C-14.70355553 50.62050012 -14.70940392 47.59933367 -14.71289062 44.578125 C-14.71837462 40.71221057 -14.74240391 36.84664846 -14.77086258 32.9808445 C-14.78951191 30.00394677 -14.79469576 27.02713355 -14.7962265 24.05018234 C-14.79924822 22.62525887 -14.80726057 21.20033672 -14.82041168 19.77547073 C-14.83751875 17.77958425 -14.83374038 15.78355206 -14.82910156 13.78759766 C-14.83274719 12.65303131 -14.83639282 11.51846497 -14.84014893 10.34951782 C-14.42458713 6.90199756 -13.54562446 5.06383977 -11.47265625 2.30078125 C-7.63078049 -0.26046925 -4.45526671 -0.00503653 0 0 Z M7.52734375 17.30078125 C7.52734375 32.15078125 7.52734375 47.00078125 7.52734375 62.30078125 C22.28517824 62.96691548 22.28517824 62.96691548 34.40234375 56.98828125 C39.66631743 50.33090277 40.84852136 44.04725636 40.3828125 35.71484375 C39.45136345 29.06163625 36.8604871 24.44216072 31.52734375 20.30078125 C23.88135541 16.25290507 16.16557271 17.30078125 7.52734375 17.30078125 Z " fill="#FFFFFF" transform="translate(1411.47265625,117.69921875)"/>
<path d="M0 0 C0.80695816 -0.0066568 1.61391632 -0.0133136 2.44532776 -0.02017212 C4.15583017 -0.03028996 5.86637199 -0.03498941 7.5769043 -0.03466797 C10.15157518 -0.03899555 12.72446563 -0.07519384 15.29882812 -0.11328125 C28.64424503 -0.20506285 41.25369906 1.15357007 51.75390625 10.3359375 C60.71948643 19.66335723 62.87444495 30.70615997 62.75390625 43.3359375 C61.85831518 54.23459191 58.098702 64.022694 49.75390625 71.3359375 C40.72380413 77.41440922 32.09592812 79.64278389 21.36328125 79.671875 C20.49624573 79.6785318 19.62921021 79.6851886 18.73590088 79.69204712 C16.91737981 79.70210744 15.09882231 79.70686621 13.28027344 79.70654297 C10.49743852 79.71094774 7.71615212 79.74742166 4.93359375 79.78515625 C3.16016164 79.79101953 1.38672205 79.79499219 -0.38671875 79.796875 C-1.21592834 79.81124603 -2.04513794 79.82561707 -2.8994751 79.84042358 C-8.64567543 79.79478325 -8.64567543 79.79478325 -11.73730469 77.43212891 C-14.37462157 73.76805079 -14.37671943 71.52935404 -14.39135742 67.02197266 C-14.39471603 66.37461655 -14.39807465 65.72726044 -14.40153503 65.06028748 C-14.41105217 62.91517225 -14.41298861 60.77013504 -14.4140625 58.625 C-14.41727488 57.13528409 -14.42063893 55.64556851 -14.42414856 54.15585327 C-14.43014196 51.03032703 -14.43198828 47.90482846 -14.43139648 44.77929688 C-14.43129492 40.77545283 -14.44493984 36.77178636 -14.46216869 32.76798439 C-14.47329174 29.68990261 -14.47531559 26.6118637 -14.47478676 23.53376389 C-14.4759667 22.05778772 -14.48038926 20.58181043 -14.48811913 19.10585403 C-14.497924 17.04000707 -14.49503908 14.97454465 -14.48901367 12.90869141 C-14.49043869 11.73335846 -14.49186371 10.55802551 -14.49333191 9.34707642 C-14.25274917 6.41699455 -13.83536842 4.77532464 -12.24609375 2.3359375 C-8.65218465 -0.40814537 -4.32693306 0.01251041 0 0 Z M6.75390625 17.3359375 C6.75390625 32.1859375 6.75390625 47.0359375 6.75390625 62.3359375 C21.13131639 63.32619114 21.13131639 63.32619114 33.5546875 57.75390625 C39.6000205 51.13145315 40.30047041 44.79234577 40.06640625 36.01171875 C39.51340365 29.50702571 37.44071691 26.09942137 33.00390625 21.4609375 C24.52491657 15.91698271 17.19209435 17.3359375 6.75390625 17.3359375 Z " fill="#FFFFFF" transform="translate(844.24609375,117.6640625)"/>
<path d="M0 0 C5.03993195 1.05627316 7.51453793 4.66113512 10.609375 8.546875 C11.42921875 9.56523438 12.2490625 10.58359375 13.09375 11.6328125 C14.94781074 13.96228215 16.77617954 16.30994647 18.59375 18.66796875 C21.84245482 22.87160245 25.18860461 26.9930611 28.546875 31.109375 C29.09045654 31.77582031 29.63403809 32.44226563 30.1940918 33.12890625 C31.17430909 34.33063036 32.15502186 35.53195069 33.13647461 36.73266602 C34.97279458 38.99450817 36.79131554 41.27034202 38.609375 43.546875 C38.6187207 42.38639648 38.62806641 41.22591797 38.63769531 40.03027344 C38.67759376 35.72112769 38.74335184 31.41269601 38.81689453 27.10400391 C38.84510506 25.23983947 38.86631921 23.3755554 38.88037109 21.51123047 C38.90179984 18.82978059 38.94844798 16.14976914 39 13.46875 C39.00122864 12.63631775 39.00245728 11.8038855 39.00372314 10.94622803 C39.10037015 7.12072428 39.15280158 5.16254651 41.48144531 2.02246094 C45.47237683 -0.74500006 49.9684229 -0.15138375 54.609375 0.546875 C57.53102948 2.42508145 58.33331791 3.46884791 59.1852417 6.79568481 C59.65757752 9.8595463 59.75134453 12.7778949 59.77050781 15.87841797 C59.78011536 17.1367746 59.7897229 18.39513123 59.79962158 19.69161987 C59.80446983 21.05743222 59.80874859 22.4232467 59.8125 23.7890625 C59.81674107 24.82820486 59.81674107 24.82820486 59.82106781 25.88834 C59.83602062 29.55333076 59.84527514 33.21828255 59.84960938 36.88330078 C59.85509298 40.65480023 59.87912949 44.42593849 59.90758133 48.19732475 C59.92626894 51.11081972 59.93141651 54.02422865 59.93294525 56.93777847 C59.93595774 58.32755638 59.9439385 59.71733329 59.95713043 61.10705185 C60.07790237 74.80575499 60.07790237 74.80575499 56.609375 80.546875 C54.19426885 81.75442808 52.49199451 81.78260248 49.796875 81.859375 C48.94480469 81.89675781 48.09273437 81.93414062 47.21484375 81.97265625 C41.29404977 81.00509022 38.02738248 75.82044605 34.609375 71.296875 C33.64715695 70.04715685 32.68355651 68.79850214 31.71875 67.55078125 C31.21537109 66.89867676 30.71199219 66.24657227 30.19335938 65.57470703 C26.9594799 61.43466342 23.61790528 57.38113802 20.2890625 53.31738281 C16.31620866 48.45467022 12.44705369 43.51685465 8.609375 38.546875 C8.6000293 39.67182373 8.59068359 40.79677246 8.58105469 41.95581055 C8.54110245 46.14012869 8.47532948 50.32371563 8.40185547 54.50756836 C8.37367611 56.31639189 8.35244645 58.12533786 8.33837891 59.93432617 C8.31690686 62.53888494 8.27023689 65.14197634 8.21875 67.74609375 C8.21690704 68.95418953 8.21690704 68.95418953 8.21502686 70.18669128 C8.11279459 74.12908176 7.86744525 76.13153268 5.73730469 79.55981445 C3.05477488 82.06476054 1.73331513 82.16634555 -1.890625 82.046875 C-2.8290625 82.0365625 -3.7675 82.02625 -4.734375 82.015625 C-7.77235177 81.47951145 -9.1815788 80.67559225 -11.390625 78.546875 C-12.51573629 75.17154114 -12.52445455 72.60187064 -12.53588867 69.04345703 C-12.53924728 68.38780762 -12.5426059 67.7321582 -12.54606628 67.05664062 C-12.55556451 64.88930364 -12.55751888 62.72204401 -12.55859375 60.5546875 C-12.56180732 59.04637622 -12.56517146 57.53806526 -12.56867981 56.02975464 C-12.57466839 52.86732257 -12.57652001 49.70491781 -12.57592773 46.54248047 C-12.57582617 42.4950454 -12.58947332 38.44778599 -12.60669994 34.40039253 C-12.61783254 31.28452758 -12.61984655 28.16870491 -12.61931801 25.05282211 C-12.62049642 23.56092601 -12.6249104 22.06902875 -12.63265038 20.57715225 C-12.64247501 18.48767135 -12.63956259 16.39856936 -12.63354492 14.30908203 C-12.63496994 13.12122101 -12.63639496 11.93335999 -12.63786316 10.70950317 C-12.38854105 7.52021752 -11.88953827 5.3627928 -10.390625 2.546875 C-6.6836065 0.07552933 -4.38194219 -0.12664573 0 0 Z " fill="#FFFFFF" transform="translate(1318.390625,116.453125)"/>
<path d="M0 0 C1.21255211 -0.01913956 1.21255211 -0.01913956 2.44960022 -0.03866577 C3.32144455 -0.04089142 4.19328888 -0.04311707 5.09155273 -0.04541016 C5.99582504 -0.05206696 6.90009735 -0.05872375 7.83177185 -0.06558228 C9.74915535 -0.07571302 11.66657414 -0.08039916 13.58398438 -0.08007812 C16.4901118 -0.08442031 19.39468159 -0.12064824 22.30053711 -0.15869141 C42.18616328 -0.28252186 42.18616328 -0.28252186 50.40014648 6.22021484 C50.91577148 6.86216797 51.43139648 7.50412109 51.96264648 8.16552734 C52.49889648 8.80232422 53.03514648 9.43912109 53.58764648 10.09521484 C57.86792327 16.92906585 57.68454785 24.49221012 56.96264648 32.29052734 C55.07227438 38.86084768 50.85416727 43.42710284 45.15014648 47.10302734 C44.42827148 47.49490234 43.70639648 47.88677734 42.96264648 48.29052734 C43.68452148 48.95052734 44.40639648 49.61052734 45.15014648 50.29052734 C48.42408669 53.56446755 50.62274984 57.32485836 52.96264648 61.29052734 C53.35967773 61.88091797 53.75670898 62.47130859 54.16577148 63.07958984 C57.20670044 67.76947324 57.67243443 70.87839425 56.96264648 76.29052734 C55.65014648 78.79052734 55.65014648 78.79052734 52.96264648 80.29052734 C47.67663889 81.15641002 43.66249437 81.32521736 38.99780273 78.48583984 C33.82567918 73.80204623 31.19191157 66.59519145 28.25756836 60.39794922 C25.35873374 54.56169705 25.35873374 54.56169705 20.08520508 51.13964844 C17.34344034 50.63942899 14.74663797 50.34165868 11.96264648 50.29052734 C11.97835693 50.96108154 11.99406738 51.63163574 12.01025391 52.32250977 C12.07279307 55.37426244 12.11169712 58.42588003 12.15014648 61.47802734 C12.1752832 62.533125 12.20041992 63.58822266 12.22631836 64.67529297 C12.23598633 65.696875 12.2456543 66.71845703 12.25561523 67.77099609 C12.27132568 68.70838623 12.28703613 69.64577637 12.30322266 70.61157227 C11.89172398 73.84840022 10.88101139 75.67013684 8.96264648 78.29052734 C4.72297632 81.11697412 0.94177789 80.94964681 -4.03735352 80.29052734 C-7.59415523 78.18548143 -8.73204288 77.20645926 -10.03735352 73.29052734 C-10.14170119 71.18581976 -10.18598277 69.07795871 -10.19848633 66.97070312 C-10.20809387 65.66569855 -10.21770142 64.36069397 -10.2276001 63.0161438 C-10.23244797 61.58937759 -10.23672683 60.16260935 -10.24047852 58.73583984 C-10.24623217 57.27236937 -10.25198988 55.80889891 -10.25775146 54.34542847 C-10.26825318 51.27715708 -10.27410132 48.20891183 -10.27758789 45.140625 C-10.28307204 41.2141788 -10.30710151 37.28807946 -10.33555984 33.36174202 C-10.35420774 30.3385213 -10.35939295 27.31538381 -10.36092377 24.29211044 C-10.3639458 22.84485858 -10.3719592 21.39760803 -10.38510895 19.95041275 C-10.40221306 17.92339213 -10.39843808 15.89622809 -10.39379883 13.86914062 C-10.39744446 12.71680939 -10.40109009 11.56447815 -10.40484619 10.37722778 C-9.99164466 6.90660255 -9.12696852 5.06857486 -7.03735352 2.29052734 C-4.00980026 0.27215851 -3.39897825 0.03653233 0 0 Z M11.96264648 16.29052734 C11.96264648 22.56052734 11.96264648 28.83052734 11.96264648 35.29052734 C23.92178241 35.97785598 23.92178241 35.97785598 34.90014648 31.97802734 C36.34224306 29.68763866 36.7694223 27.99566588 36.96264648 25.29052734 C35.92018909 21.31023546 34.50400216 19.37367774 30.96264648 17.29052734 C27.13212586 15.95619907 23.21375192 16.1792439 19.21264648 16.22802734 C16.82014648 16.24865234 14.42764648 16.26927734 11.96264648 16.29052734 Z " fill="#FFFFFF" transform="translate(1501.037353515625,117.70947265625)"/>
<path d="M0 0 C1.40378906 -0.05994141 1.40378906 -0.05994141 2.8359375 -0.12109375 C6.86452032 0.68575127 8.12750156 2.18997801 10.625 5.4375 C11.33458229 8.68229562 11.27553051 11.85349228 11.2265625 15.1640625 C11.23857193 16.57925674 11.23857193 16.57925674 11.25082397 18.02304077 C11.27386694 21.03663121 11.26445847 24.04887385 11.25 27.0625 C10.17260412 44.33123701 10.17260412 44.33123701 14.625 60.4375 C20.05050629 63.2151672 25.66536084 63.09784783 31.625 62.4375 C35.09321201 60.63402975 36.17336069 59.46902933 37.72290039 55.92993164 C38.91818321 51.30245648 38.92272944 46.94382411 38.93359375 42.18359375 C38.95874106 40.17512715 38.98413925 38.16666367 39.00976562 36.15820312 C39.0385517 33.00920336 39.0625876 29.8602576 39.08129883 26.71118164 C39.10294821 23.6600456 39.14237077 20.60951891 39.18359375 17.55859375 C39.18370956 16.61890244 39.18382538 15.67921112 39.1839447 14.71104431 C39.2577546 9.83499333 39.36948027 6.34517709 42.625 2.4375 C45.77594133 0.33687245 46.8474366 0.09436714 50.5 0 C51.34304688 -0.03996094 52.18609375 -0.07992187 53.0546875 -0.12109375 C56.98243312 0.73250446 58.21314275 2.21937775 60.625 5.4375 C61.3558976 9.20122528 61.27797849 12.90701143 61.21875 16.73046875 C61.21879028 17.83167557 61.21883057 18.93288239 61.21887207 20.06745911 C61.21351535 22.39667466 61.19592638 24.72588965 61.16699219 27.05493164 C61.12535127 30.59513556 61.12590872 34.13342193 61.1328125 37.67382812 C61.12231157 39.9427214 61.10936863 42.21160494 61.09375 44.48046875 C61.09344788 46.05286568 61.09344788 46.05286568 61.09313965 47.6570282 C60.93107561 57.88455144 59.02417952 66.971811 51.625 74.4375 C42.29001901 81.76014976 31.21939826 83.29070145 19.625 82.4375 C8.29278007 80.5134277 0.46492379 76.89998525 -6.375 67.4375 C-9.40360337 62.06559767 -10.49276214 56.54852641 -10.52026367 50.43530273 C-10.52664352 49.46757431 -10.53302338 48.49984589 -10.53959656 47.50279236 C-10.54070938 46.46933182 -10.5418222 45.43587128 -10.54296875 44.37109375 C-10.54629715 43.30004898 -10.54962555 42.22900421 -10.55305481 41.12550354 C-10.55810938 38.86533029 -10.56046359 36.6051496 -10.56030273 34.3449707 C-10.5624942 30.88415319 -10.5806793 27.42365198 -10.59960938 23.96289062 C-10.60254257 21.76562609 -10.60452786 19.56836004 -10.60546875 17.37109375 C-10.61265427 16.33560898 -10.61983978 15.30012421 -10.62724304 14.23326111 C-10.62416641 13.26868484 -10.62108978 12.30410858 -10.61791992 11.31030273 C-10.61934494 10.46378647 -10.62076996 9.6172702 -10.62223816 8.74510193 C-10.34626548 6.16930585 -9.77465031 4.61096679 -8.375 2.4375 C-5.10183609 0.25539073 -3.83279281 0.08925682 0 0 Z " fill="#FFFFFF" transform="translate(1226.375,116.5625)"/>
<path d="M0 0 C0.85207031 -0.04898438 1.70414063 -0.09796875 2.58203125 -0.1484375 C6.37771376 0.61411341 7.74940017 2.42573407 10.1875 5.375 C10.84692383 8.51293945 10.84692383 8.51293945 10.89453125 11.98828125 C10.92353516 13.23544922 10.95253906 14.48261719 10.98242188 15.76757812 C10.98822266 17.06115234 10.99402344 18.35472656 11 19.6875 C11.02513672 21.00041016 11.05027344 22.31332031 11.07617188 23.66601562 C11.13501968 26.90264489 11.17131937 30.13792218 11.1875 33.375 C11.62320313 32.87291016 12.05890625 32.37082031 12.5078125 31.85351562 C16.33323805 27.46090035 20.2156139 23.1352478 24.1875 18.875 C27.56669369 15.24019726 30.90090392 11.58687943 34.125 7.8125 C40.48362125 0.61721806 40.48362125 0.61721806 44.578125 0.03515625 C51.14920209 -0.2050147 51.14920209 -0.2050147 54.453125 1.640625 C56.53764923 3.72514923 56.8079085 4.64660006 56.875 7.5625 C56.6196037 11.44099827 55.81285911 13.28989227 53.171875 16.125 C52.53854248 16.81295654 51.90520996 17.50091309 51.25268555 18.2097168 C50.57117432 18.92426025 49.88966309 19.63880371 49.1875 20.375 C48.50276611 21.0966333 47.81803223 21.8182666 47.11254883 22.56176758 C44.26679949 25.54128723 41.41090119 28.51029464 38.53320312 31.45898438 C37.84291016 32.18021484 37.15261719 32.90144531 36.44140625 33.64453125 C35.81564697 34.29010986 35.1898877 34.93568848 34.54516602 35.60083008 C32.8836411 37.39973649 32.8836411 37.39973649 33.1875 40.375 C34.87635401 42.5805683 34.87635401 42.5805683 37.125 44.875 C41.31177295 49.38433879 45.23684165 54.03703627 49.10546875 58.8203125 C50.9309276 61.06018134 52.79199154 63.25698669 54.6875 65.4375 C57.50540592 68.74853946 58.10444826 69.47804123 58.5 73.75 C58.1875 77.375 58.1875 77.375 56.875 79.8125 C52.42785605 82.39804881 48.17470846 82.38216605 43.1875 81.375 C39.93409959 79.55006393 37.66468702 77.13782687 35.1875 74.375 C34.07568359 73.18197266 34.07568359 73.18197266 32.94140625 71.96484375 C30.65155447 69.46647259 28.41282356 66.93089699 26.1875 64.375 C25.5790625 63.68148437 24.970625 62.98796875 24.34375 62.2734375 C23.24797938 61.02326283 22.1539593 59.77155012 21.06225586 58.51782227 C19.04402181 56.21100624 17.01015139 53.91872277 14.97265625 51.62890625 C14.26117432 50.82912354 13.54969238 50.02934082 12.81665039 49.20532227 C12.27903076 48.60131592 11.74141113 47.99730957 11.1875 47.375 C11.18133667 48.65346802 11.18133667 48.65346802 11.17504883 49.95776367 C11.1479958 53.13595348 11.0988357 56.31283292 11.03491211 59.49047852 C11.01179022 60.86275431 10.99734997 62.23520609 10.99194336 63.60766602 C10.98261335 65.58634471 10.93892981 67.56476624 10.89453125 69.54296875 C10.8788208 70.73172607 10.86311035 71.9204834 10.84692383 73.14526367 C10.00532565 77.26725637 8.42550173 78.77232525 5.1875 81.375 C1.45659151 82.22702307 -2.04801105 82.01884942 -5.8125 81.375 C-8.46813802 79.4781157 -9.38492527 78.23014945 -10.8125 75.375 C-10.92489167 73.21655558 -10.97186369 71.05460717 -10.98950195 68.89331055 C-10.99607315 68.22805359 -11.00264435 67.56279663 -11.00941467 66.87738037 C-11.02915161 64.67215871 -11.04081138 62.46700518 -11.05078125 60.26171875 C-11.05485678 59.50854685 -11.0589323 58.75537495 -11.06313133 57.97937965 C-11.0839943 53.99252216 -11.0982947 50.00569911 -11.10766602 46.01879883 C-11.11872785 41.90278219 -11.15312383 37.78730657 -11.19283772 33.67148113 C-11.21899687 30.50499982 -11.22735721 27.33864751 -11.23094749 24.17206764 C-11.23581575 22.65502076 -11.24743667 21.13797973 -11.26598549 19.62103844 C-11.2903626 17.49521547 -11.28941555 15.3707933 -11.2824707 13.24487305 C-11.28833694 12.03623093 -11.29420319 10.82758881 -11.30024719 9.58232117 C-10.71767549 5.75145434 -9.5008847 4.11149958 -6.8125 1.375 C-4.40736979 0.17243489 -2.68396436 0.1046223 0 0 Z " fill="#FFFFFF" transform="translate(663.8125,116.625)"/>
<path d="M0 0 C0.85207031 -0.03738281 1.70414063 -0.07476562 2.58203125 -0.11328125 C6.13626845 0.46754612 7.56251901 1.85243798 10.1875 4.3125 C11.58014489 6.63016674 12.75702624 8.81843013 13.890625 11.25390625 C14.22539856 11.94795059 14.56017212 12.64199493 14.90509033 13.35707092 C16.01398506 15.66884555 17.10215753 17.9895823 18.1875 20.3125 C18.76407349 21.53607208 18.76407349 21.53607208 19.35229492 22.78436279 C21.82168499 28.02606658 24.26278134 33.28040904 26.68896484 38.54223633 C27.9477133 41.27215012 29.20988082 44.00046256 30.47265625 46.72851562 C31.28925756 48.49470149 32.10567063 50.26097441 32.921875 52.02734375 C33.29173523 52.82752426 33.66159546 53.62770477 34.04266357 54.45213318 C34.74729891 55.98071594 35.44958762 57.51038307 36.14929199 59.04122925 C36.86893312 60.61557643 37.59435272 62.18729015 38.32434082 63.75686646 C38.68684937 64.54809906 39.04935791 65.33933167 39.42285156 66.15454102 C39.74981018 66.86183853 40.0767688 67.56913605 40.41363525 68.29786682 C41.63285033 71.47189841 41.71045489 73.97866259 41.1875 77.3125 C39.875 79.75 39.875 79.75 37.1875 81.3125 C33.38767853 81.98477611 29.98220089 82.04094705 26.1875 81.3125 C21.50663352 77.42837675 19.22247168 71.99677843 17.1875 66.3125 C17.1875 65.6525 17.1875 64.9925 17.1875 64.3125 C5.9675 64.6425 -5.2525 64.9725 -16.8125 65.3125 C-19.1225 69.9325 -21.4325 74.5525 -23.8125 79.3125 C-27.01874887 81.44999925 -28.03708103 81.60824999 -31.75 81.625 C-32.60464844 81.64175781 -33.45929687 81.65851563 -34.33984375 81.67578125 C-37.30547951 81.24007173 -38.64376669 80.350236 -40.8125 78.3125 C-43.11296139 72.41756769 -40.17977255 67.73652085 -37.8125 62.3125 C-35.50694772 57.24757784 -33.13382663 52.21594707 -30.75 47.1875 C-29.40573781 44.34590628 -28.0634014 41.50341106 -26.72265625 38.66015625 C-26.22324524 37.60150612 -26.22324524 37.60150612 -25.71374512 36.52146912 C-23.61307862 32.05458758 -21.56680764 27.56781551 -19.55859375 23.05859375 C-19.0694751 21.96498535 -18.58035645 20.87137695 -18.07641602 19.74462891 C-17.17552276 17.72114252 -16.28352224 15.69366439 -15.40209961 13.66162109 C-12.07185465 6.20831071 -8.87239755 0.25273696 0 0 Z M-0.8125 24.3125 C-2.3181651 27.93517294 -3.81606546 31.56100549 -5.3125 35.1875 C-5.74175781 36.22003906 -6.17101562 37.25257813 -6.61328125 38.31640625 C-7.01933594 39.30253906 -7.42539062 40.28867188 -7.84375 41.3046875 C-8.22080078 42.21589355 -8.59785156 43.12709961 -8.98632812 44.06591797 C-9.92754919 46.22640327 -9.92754919 46.22640327 -9.8125 48.3125 C-3.2125 48.3125 3.3875 48.3125 10.1875 48.3125 C6.8875 40.3925 3.5875 32.4725 0.1875 24.3125 C-0.1425 24.3125 -0.4725 24.3125 -0.8125 24.3125 Z " fill="#FFFFFF" transform="translate(774.8125,116.6875)"/>
<path d="M0 0 C0.82242187 -0.0309375 1.64484375 -0.061875 2.4921875 -0.09375 C6.77630482 0.87240109 9.8906579 3.61862826 12.2673645 7.24118042 C13.33019327 9.26140103 14.29124559 11.30440291 15.2265625 13.38671875 C15.58560669 14.15336349 15.94465088 14.92000824 16.3145752 15.70988464 C17.47453272 18.19585436 18.61279661 20.69104988 19.75 23.1875 C20.54425982 24.90629376 21.33967793 26.62455272 22.13623047 28.34228516 C23.72676087 31.77659734 25.30909563 35.21452712 26.88671875 38.65478516 C28.86828805 42.96312975 30.90628437 47.24165412 32.96875 51.51171875 C33.52997559 52.68581299 34.09120117 53.85990723 34.66943359 55.06958008 C35.69342361 57.21103836 36.72702 59.34794022 37.77197266 61.47924805 C40.43705624 67.13502016 41.8323343 71.23301809 41.125 77.5 C39.75 80 39.75 80 37.125 81.5 C32.16837656 82.37764833 28.44507236 82.4183112 24.25 79.5 C21.13071849 75.09630846 18.83074564 70.61723693 17.125 65.5 C5.905 65.5 -5.315 65.5 -16.875 65.5 C-19.185 70.12 -21.495 74.74 -23.875 79.5 C-28.12295269 82.33196846 -31.89029134 82.13634579 -36.875 81.5 C-39.5 80 -39.5 80 -40.875 77.5 C-41.28550557 71.66356549 -40.65285051 68.04633765 -38.05078125 62.703125 C-37.75288696 62.07955109 -37.45499268 61.45597717 -37.14807129 60.81350708 C-36.1753811 58.78514794 -35.18172268 56.76787909 -34.1875 54.75 C-33.50514449 53.33752798 -32.82441937 51.92426727 -32.14526367 50.51025391 C-31.10081306 48.33686319 -30.05500348 46.16422368 -29.00312805 43.99441528 C-26.65485734 39.1485601 -24.36660469 34.27887038 -22.125 29.3828125 C-21.83167282 28.74323608 -21.53834564 28.10365967 -21.23612976 27.44470215 C-19.84935094 24.41857845 -18.46714708 21.39047264 -17.08911133 18.36035156 C-8.68841652 0.10826687 -8.68841652 0.10826687 0 0 Z M-0.875 25.5 C-2.38085523 28.95581315 -3.87868289 32.41504753 -5.375 35.875 C-5.80425781 36.85984375 -6.23351563 37.8446875 -6.67578125 38.859375 C-7.28486328 40.27089844 -7.28486328 40.27089844 -7.90625 41.7109375 C-8.47182617 43.01490479 -8.47182617 43.01490479 -9.04882812 44.34521484 C-9.99433353 46.4266173 -9.99433353 46.4266173 -9.875 48.5 C-3.275 48.5 3.325 48.5 10.125 48.5 C7.17998828 40.81024717 4.20991206 33.1347265 1.125 25.5 C0.465 25.5 -0.195 25.5 -0.875 25.5 Z " fill="#FFFFFF" transform="translate(1160.875,116.5)"/>
<path d="M0 0 C0.82242188 -0.0309375 1.64484375 -0.061875 2.4921875 -0.09375 C6.77630482 0.87240109 9.8906579 3.61862826 12.2673645 7.24118042 C13.33019327 9.26140103 14.29124559 11.30440291 15.2265625 13.38671875 C15.58560669 14.15336349 15.94465088 14.92000824 16.3145752 15.70988464 C17.47453272 18.19585436 18.61279661 20.69104988 19.75 23.1875 C20.54425982 24.90629376 21.33967793 26.62455272 22.13623047 28.34228516 C23.72676087 31.77659734 25.30909563 35.21452712 26.88671875 38.65478516 C28.86828805 42.96312975 30.90628437 47.24165412 32.96875 51.51171875 C33.52997559 52.68581299 34.09120117 53.85990723 34.66943359 55.06958008 C35.69342361 57.21103836 36.72702 59.34794022 37.77197266 61.47924805 C40.43705624 67.13502016 41.8323343 71.23301809 41.125 77.5 C39.75 80 39.75 80 37.125 81.5 C32.16837656 82.37764833 28.44507236 82.4183112 24.25 79.5 C21.13071849 75.09630846 18.83074564 70.61723693 17.125 65.5 C5.905 65.5 -5.315 65.5 -16.875 65.5 C-19.185 70.12 -21.495 74.74 -23.875 79.5 C-28.12295269 82.33196846 -31.89029134 82.13634579 -36.875 81.5 C-39.5 80 -39.5 80 -40.875 77.5 C-41.28550557 71.66356549 -40.65285051 68.04633765 -38.05078125 62.703125 C-37.75288696 62.07955109 -37.45499268 61.45597717 -37.14807129 60.81350708 C-36.1753811 58.78514794 -35.18172268 56.76787909 -34.1875 54.75 C-33.50514449 53.33752798 -32.82441937 51.92426727 -32.14526367 50.51025391 C-31.10081306 48.33686319 -30.05500348 46.16422368 -29.00312805 43.99441528 C-26.65485734 39.1485601 -24.36660469 34.27887038 -22.125 29.3828125 C-21.83167282 28.74323608 -21.53834564 28.10365967 -21.23612976 27.44470215 C-19.84935094 24.41857845 -18.46714708 21.39047264 -17.08911133 18.36035156 C-8.68841652 0.10826687 -8.68841652 0.10826687 0 0 Z M-0.875 25.5 C-2.38085523 28.95581315 -3.87868289 32.41504753 -5.375 35.875 C-5.80425781 36.85984375 -6.23351562 37.8446875 -6.67578125 38.859375 C-7.28486328 40.27089844 -7.28486328 40.27089844 -7.90625 41.7109375 C-8.47182617 43.01490479 -8.47182617 43.01490479 -9.04882812 44.34521484 C-9.99433353 46.4266173 -9.99433353 46.4266173 -9.875 48.5 C-3.275 48.5 3.325 48.5 10.125 48.5 C7.17998828 40.81024717 4.20991206 33.1347265 1.125 25.5 C0.465 25.5 -0.195 25.5 -0.875 25.5 Z " fill="#FFFFFF" transform="translate(959.875,116.5)"/>
<path d="M0 0 C4.0096189 2.02721294 6.0744409 4.08305103 8.48046875 7.8515625 C9.08697266 8.78484375 9.69347656 9.718125 10.31835938 10.6796875 C10.93517578 11.65164062 11.55199219 12.62359375 12.1875 13.625 C13.4269563 15.55728059 14.67025114 17.4871061 15.91796875 19.4140625 C16.46219482 20.2695166 17.0064209 21.1249707 17.56713867 22.00634766 C18.85150914 24.11962998 18.85150914 24.11962998 21 25 C21.20882813 24.35289062 21.41765625 23.70578125 21.6328125 23.0390625 C23.54718056 18.78369579 26.17621218 15.16754116 28.875 11.375 C29.40480469 10.611875 29.93460938 9.84875 30.48046875 9.0625 C30.99996094 8.32773438 31.51945312 7.59296875 32.0546875 6.8359375 C32.52374512 6.17126465 32.99280273 5.5065918 33.47607422 4.82177734 C35.79402019 2.05078842 37.82900679 0.19141235 41.4375 -0.3984375 C42.283125 -0.39070313 43.12875 -0.38296875 44 -0.375 C44.845625 -0.38273437 45.69125 -0.39046875 46.5625 -0.3984375 C49.50023053 0.08176845 50.86126532 0.95197059 53 3 C54.31086931 7.17839591 54.32730719 9.87861516 52.36328125 13.71484375 C50.00545122 18.20508489 47.16276813 22.27691785 44.1875 26.375 C42.66188487 28.50173526 41.13813433 30.62849766 39.63574219 32.77172852 C38 35 38 35 36.07519531 37.21069336 C30.01829361 44.58187198 30.13215373 51.70256963 30.375 60.8125 C30.41945783 62.90564236 30.45307227 64.99662469 30.45645142 67.09025574 C30.46069764 68.97553498 30.50337219 70.86061366 30.54833984 72.74536133 C29.84071724 76.94541339 28.28055761 78.38022396 25 81 C22.28125 81.6640625 22.28125 81.6640625 19.5 81.625 C18.12328125 81.64433594 18.12328125 81.64433594 16.71875 81.6640625 C12.9047055 80.73247117 11.46419438 79.01664217 9 76 C8.56274414 72.90405273 8.56274414 72.90405273 8.78515625 69.43359375 C8.85077759 67.51220581 8.85077759 67.51220581 8.91772461 65.55200195 C8.94397919 64.87996735 8.97023376 64.20793274 8.99728394 63.51553345 C9.47882923 48.17165708 5.99751843 38.65634933 -4.26318359 26.99658203 C-14.28890738 15.47136849 -14.28890738 15.47136849 -14.8125 8.5625 C-12.97555588 0.50820657 -7.59939219 -1.56151894 0 0 Z " fill="#FFFFFF" transform="translate(1586,117)"/>
<path d="M0 0 C0.93585938 -0.0515625 1.87171875 -0.103125 2.8359375 -0.15625 C6.05848969 0.60199757 7.53710902 1.8257413 9.57666016 4.40887451 C11.85148251 8.94646701 11.2224116 14.16064659 11.11328125 19.1171875 C11.10620651 20.32948029 11.09913177 21.54177307 11.09184265 22.790802 C11.06391282 26.65283587 11.00117113 30.51340622 10.9375 34.375 C10.91241557 36.99737486 10.88960266 39.6197725 10.86914062 42.2421875 C10.81409036 48.66195547 10.73047547 55.08087316 10.625 61.5 C11.47731201 61.48952637 12.32962402 61.47905273 13.20776367 61.46826172 C16.38532505 61.43407345 19.56279232 61.40904927 22.74047852 61.39013672 C24.11290583 61.38011074 25.48531195 61.36648644 26.85766602 61.34912109 C28.83600527 61.32472373 30.81450367 61.31455516 32.79296875 61.3046875 C33.98172607 61.29421387 35.1704834 61.28374023 36.39526367 61.27294922 C39.62989718 61.50034427 41.77539188 61.97628419 44.625 63.5 C46.66531755 66.56047632 46.94093524 67.43495994 47 70.9375 C47.02835938 71.69933594 47.05671875 72.46117187 47.0859375 73.24609375 C46.40045439 76.59798998 45.42916321 77.48832333 42.625 79.5 C39.05981692 80.12513215 35.52235883 80.08408172 31.91015625 80.06640625 C30.86226425 80.07260483 29.81437225 80.07880341 28.73472595 80.08518982 C26.51985605 80.09228985 24.30493279 80.08911084 22.09008789 80.07641602 C18.70293782 80.06256314 15.31855679 80.09660527 11.93164062 80.13476562 C9.77864516 80.13571694 7.62564623 80.13385732 5.47265625 80.12890625 C4.46106949 80.14216446 3.44948273 80.15542267 2.40724182 80.16908264 C-2.28054112 80.10708831 -4.62918128 80.04804029 -8.49047852 77.21069336 C-11.41064865 73.01032427 -11.50337894 69.61178302 -11.53613281 64.55737305 C-11.54574036 63.35900314 -11.5553479 62.16063324 -11.56524658 60.9259491 C-11.56949646 59.63425308 -11.57374634 58.34255707 -11.578125 57.01171875 C-11.58388242 55.66657003 -11.58964007 54.3214213 -11.59539795 52.97627258 C-11.60588906 50.15776184 -11.61174393 47.33927946 -11.61523438 44.52075195 C-11.6207123 40.92297115 -11.64473283 37.32557007 -11.67320633 33.72790813 C-11.6919032 30.9490909 -11.69704205 28.17036383 -11.69857025 25.39148903 C-11.70303899 23.42457818 -11.72165066 21.45771573 -11.74053955 19.4908905 C-11.71203574 8.01920689 -11.71203574 8.01920689 -8.375 2.5 C-5.12037409 0.33024939 -3.81400742 0.12539202 0 0 Z " fill="#FFFFFF" transform="translate(1064.375,117.5)"/>
<path d="M0 0 C1.41732422 0.63615234 1.41732422 0.63615234 2.86328125 1.28515625 C19.52719441 9.55949211 29.73894557 23.89589663 36.1015625 40.953125 C41.22147245 58.31629789 37.16694865 75.11259487 28.98828125 90.734375 C25.91425627 95.78326475 22.22312877 99.89142264 18 104 C17.48308594 104.54914063 16.96617187 105.09828125 16.43359375 105.6640625 C12.54164307 109.46455742 7.86709402 111.80288504 3.0625 114.25 C2.05981079 114.76264404 2.05981079 114.76264404 1.03686523 115.28564453 C-12.20666182 121.76930322 -30.80217436 122.83077593 -44.875 118.375 C-46.60812543 117.63919083 -48.3191077 116.84837489 -50 116 C-50.92296875 115.57589844 -51.8459375 115.15179688 -52.796875 114.71484375 C-67.20281964 107.57156457 -78.49742627 95.08832938 -84 80 C-84.25966553 79.29536621 -84.51933105 78.59073242 -84.78686523 77.86474609 C-87.08114043 71.07249295 -87.50632039 64.76227096 -87.4375 57.625 C-87.42920166 56.51809814 -87.42090332 55.41119629 -87.41235352 54.27075195 C-87.25238675 46.56217543 -86.59004028 39.93578787 -83 33 C-82.50242188 32.00355469 -82.00484375 31.00710937 -81.4921875 29.98046875 C-72.61669525 13.57112842 -59.30971613 3.17043178 -41.9296875 -3.109375 C-29.18191147 -6.60395243 -11.97480208 -5.5467698 0 0 Z M-69.99609375 21.22265625 C-79.13387258 32.36485108 -82.35448628 43.12953468 -82.3125 57.3125 C-82.32861328 58.38951172 -82.34472656 59.46652344 -82.36132812 60.57617188 C-82.37101175 76.56383705 -75.92606577 88.94755979 -64.86328125 100.265625 C-52.70699354 111.874631 -38.44651673 116.63046938 -21.77734375 116.3046875 C-5.52003421 114.99334299 7.57662667 108.54505466 18.8515625 96.55859375 C29.86697017 83.44024461 33.97108463 67.86156045 33 51 C30.76396994 35.45342877 23.06327812 22.09723078 11 12 C-15.82769048 -6.56958276 -47.91158749 -3.3685063 -69.99609375 21.22265625 Z " fill="#165FA6" transform="translate(311,53)"/>
<path d="M0 0 C0.85207031 -0.04898438 1.70414063 -0.09796875 2.58203125 -0.1484375 C6.39127204 0.61683726 7.75366045 2.40112291 10.1875 5.375 C10.82241821 8.63806152 10.82241821 8.63806152 10.83447266 12.38085938 C10.84761505 13.40866264 10.84761505 13.40866264 10.86102295 14.45722961 C10.88294661 16.71172283 10.86849222 18.9642385 10.8515625 21.21875 C10.85493273 22.79146703 10.85978708 24.36418151 10.86605835 25.93688965 C10.87342004 29.22884991 10.86274787 32.52013062 10.83935547 35.81201172 C10.8108669 40.02577554 10.82727483 44.23794709 10.85721779 48.45165253 C10.87531052 51.69801774 10.86952395 54.9440072 10.85657883 58.19038391 C10.85325021 59.74367971 10.85731279 61.29700993 10.86897659 62.8502655 C10.88171943 65.02413904 10.86226729 67.19545688 10.83447266 69.36914062 C10.83049469 70.60426392 10.82651672 71.83938721 10.82241821 73.11193848 C10.0129044 77.27230642 8.45738246 78.76394757 5.1875 81.375 C1.45659151 82.22702307 -2.04801105 82.01884942 -5.8125 81.375 C-8.46813802 79.4781157 -9.38492527 78.23014945 -10.8125 75.375 C-10.92489167 73.21655558 -10.97186369 71.05460717 -10.98950195 68.89331055 C-10.99607315 68.22805359 -11.00264435 67.56279663 -11.00941467 66.87738037 C-11.02915161 64.67215871 -11.04081138 62.46700518 -11.05078125 60.26171875 C-11.05485678 59.50854685 -11.0589323 58.75537495 -11.06313133 57.97937965 C-11.0839943 53.99252216 -11.0982947 50.00569911 -11.10766602 46.01879883 C-11.11872785 41.90278219 -11.15312383 37.78730657 -11.19283772 33.67148113 C-11.21899687 30.50499982 -11.22735721 27.33864751 -11.23094749 24.17206764 C-11.23581575 22.65502076 -11.24743667 21.13797973 -11.26598549 19.62103844 C-11.2903626 17.49521547 -11.28941555 15.3707933 -11.2824707 13.24487305 C-11.28833694 12.03623093 -11.29420319 10.82758881 -11.30024719 9.58232117 C-10.71767549 5.75145434 -9.5008847 4.11149958 -6.8125 1.375 C-4.40736979 0.17243489 -2.68396436 0.1046223 0 0 Z " fill="#FFFFFF" transform="translate(622.8125,116.625)"/>
<path d="M0 0 C1.65 0.33 3.3 0.66 5 1 C5.74737188 6.97897503 3.3231898 10.32379721 0 15 C5.52088407 12.98016437 8.05499245 9.76240901 11.484375 5.05859375 C13 3 13 3 15 1 C17.625 0.875 17.625 0.875 20 1 C20.67562821 11.5848419 19.51645031 21.21345312 12.5625 29.625 C9.03116956 33.2542138 6.31215677 34.89723748 1.1875 35.125 C0.465625 35.08375 -0.25625 35.0425 -1 35 C-0.57847656 34.52949219 -0.15695312 34.05898437 0.27734375 33.57421875 C0.82519531 32.95160156 1.37304688 32.32898438 1.9375 31.6875 C2.75541016 30.76517578 2.75541016 30.76517578 3.58984375 29.82421875 C5.20081559 27.94758042 5.20081559 27.94758042 6 25 C1.90700432 24.67312882 0.12465492 25.24172226 -3 27.875 C-7.86760742 31.937882 -11.76286452 33.27519861 -18.125 33.1875 C-19.67574219 33.17783203 -19.67574219 33.17783203 -21.2578125 33.16796875 C-24 33 -24 33 -27 32 C-33.98151806 30.91261312 -39.03950563 32.15150193 -45.1875 35.5 C-54.5244466 40.51049749 -54.5244466 40.51049749 -60 39 C-63.9515415 35.57625667 -67.33197002 32.00408993 -69 27 C-67.76636719 26.92265625 -67.76636719 26.92265625 -66.5078125 26.84375 C-59.98834416 26.18126361 -55.82783716 25.39038472 -50.9375 20.875 C-47.16986947 17.48781425 -44.90821416 16.42557781 -39.8125 16.375 C-35.31298319 16.6853115 -31.3110958 17.67350899 -27 19 C-20.64909966 19.60484765 -16.23985711 18.74875549 -11 15 C-6.31615072 10.60233296 -2.95376818 5.67123491 0 0 Z " fill="#FAFDFE" transform="translate(313,108)"/>
<path d="M0 0 C4.87995132 2.26569169 7.63239735 5.17373306 10 10 C10.99399045 15.00711076 10.3957638 18.93715046 7.875 23.375 C5.35355795 26.90080477 3.24041092 28.71987595 -1 30 C-6.15080821 30.75044888 -10.48570518 30.79884829 -14.9375 27.875 C-18.60654811 24.7770773 -20.61644468 21.66570946 -21.3125 16.828125 C-21.60489547 11.38225941 -20.64838544 8.24001551 -17 4 C-16.34 3.21625 -15.68 2.4325 -15 1.625 C-10.16995299 -0.99127547 -5.36459332 -0.71333805 0 0 Z " fill="#00539D" transform="translate(386,18)"/>
<path d="M0 0 C0.71353638 0.00091644 1.42707275 0.00183289 2.16223145 0.0027771 C3.6650257 0.00879666 5.16780887 0.02449334 6.67041016 0.04931641 C8.96171628 0.08582543 11.251402 0.0903354 13.54296875 0.08984375 C15.00782637 0.09967649 16.47267312 0.11133418 17.9375 0.125 C18.95801453 0.12833847 18.95801453 0.12833847 19.99914551 0.13174438 C23.89884677 0.20898973 27.01775149 0.59229846 30.46875 2.4609375 C32.46875 5.4609375 32.46875 5.4609375 32.28125 8.4609375 C31.15172214 12.63150192 31.15172214 12.63150192 28.46875 14.4609375 C25.64547905 14.77146541 23.04722266 14.90514424 20.22265625 14.89453125 C19.41513412 14.8997731 18.607612 14.90501495 17.77561951 14.91041565 C16.06844227 14.91683636 14.3612208 14.91549818 12.65405273 14.90698242 C10.04395575 14.89847889 7.4360522 14.92721963 4.82617188 14.95898438 C3.16666732 14.96059668 1.5071589 14.96001829 -0.15234375 14.95703125 C-1.32125404 14.97388222 -1.32125404 14.97388222 -2.51377869 14.99107361 C-6.06324229 14.94550966 -8.12946656 14.75857968 -11.01977539 12.61743164 C-12.53125 10.4609375 -12.53125 10.4609375 -13.09375 7.4609375 C-12.53125 4.4609375 -12.53125 4.4609375 -10.46679688 2.30224609 C-6.89222446 0.0601116 -4.08653531 -0.08632077 0 0 Z " fill="#00539D" transform="translate(183.53125,20.5390625)"/>
<path d="M0 0 C1.32 0 2.64 0 4 0 C5.5512195 11.02623587 4.41555494 19.25200111 -1 29 C-1.66 28.34 -2.32 27.68 -3 27 C-2.73445313 26.46375 -2.46890625 25.9275 -2.1953125 25.375 C1.37973825 17.44204067 2.19235123 9.56532779 3 1 C2.01 0.67 1.02 0.34 0 0 Z " fill="#6FC1E9" transform="translate(330,108)"/>
<path d="M0 0 C2.77741041 1.3887052 3.4704235 3.58812958 4.9375 6.21484375 C6.36831449 8.61882251 7.77257045 10.29667152 10 12 C13.14481791 12.80315654 13.14481791 12.80315654 16 13 C16 13.33 16 13.66 16 14 C12.9375 15 12.9375 15 9 15 C4.35702011 11.35937422 1.28268214 6.37101679 -1 1 C-0.67 0.67 -0.34 0.34 0 0 Z " fill="#63BCE7" transform="translate(243,134)"/>
<path d="M0 0 C1.67542976 0.28604898 3.34385343 0.61781233 5 1 C4.67 2.32 4.34 3.64 4 5 C2.68 5.33 1.36 5.66 0 6 C-0.38218767 4.34385343 -0.71395102 2.67542976 -1 1 C-0.67 0.67 -0.34 0.34 0 0 Z " fill="#4AB1E4" transform="translate(319,126)"/>
<path d="M0 0 C2.0625 0.4375 2.0625 0.4375 4 1 C4 2.32 4 3.64 4 5 C2.68 5.33 1.36 5.66 0 6 C-0.38218767 4.34385343 -0.71395102 2.67542976 -1 1 C-0.67 0.67 -0.34 0.34 0 0 Z " fill="#F2F9FD" transform="translate(318,101)"/>
<path d="M0 0 C1.65 0.33 3.3 0.66 5 1 C4.67 2.32 4.34 3.64 4 5 C2.35 4.67 0.7 4.34 -1 4 C-0.67 2.68 -0.34 1.36 0 0 Z " fill="#3AABE1" transform="translate(309,80)"/>
</svg>
